<svg version="1.1" xmlns="http://www.w3.org/2000/svg" xmlns:xlink="http://www.w3.org/1999/xlink"
    width="357.18857" height="357.18859" viewBox="0,0,357.18857,357.18859">
    <g transform="translate(-61.40571,-1.40571)">
        <g data-paper-data="{&quot;isPaintingLayer&quot;:true}" fill="none" fill-rule="nonzero"
            stroke="#ffffff" stroke-width="6" stroke-linejoin="miter" stroke-miterlimit="10"
            stroke-dasharray="" stroke-dashoffset="0" style="mix-blend-mode: normal">
            <path
                d="M183.4375,180c0,-31.23861 25.3239,-56.5625 56.5625,-56.5625c31.23861,0 56.5625,25.3239 56.5625,56.5625c0,31.23861 -25.3239,56.5625 -56.5625,56.5625c-31.23861,0 -56.5625,-25.3239 -56.5625,-56.5625z"
                stroke-linecap="butt" />
            <path d="M193.01627,210.17631h63.87195v-30.2571h-35.00472v-30.09552h65.10024"
                stroke-linecap="round" />
            <path d="M186.27325,195.12399h55.73922" stroke-linecap="round" />
            <path d="M235.54818,164.87601h58.17857" stroke-linecap="round" />
            <path
                d="M364.16391,55.83609c26.61748,26.61748 -7.39487,103.78528 -75.96871,172.35911c-68.57384,68.57384 -145.74164,102.58618 -172.35911,75.96871c-26.61748,-26.61748 7.39487,-103.78528 75.96871,-172.35911c68.57384,-68.57384 145.74164,-102.58618 172.35911,-75.96871z"
                stroke-linecap="butt" />
            <path
                d="M364.16392,304.16392c-26.61748,26.61748 -103.78527,-7.39488 -172.35911,-75.96872c-68.57384,-68.57384 -102.5862,-145.74163 -75.96872,-172.35911c26.61748,-26.61748 103.78527,7.39488 172.35911,75.96872c68.57384,68.57384 102.5862,145.74163 75.96872,172.35911z"
                stroke-linecap="butt" />
            <path
                d="M415.59429,180c0,37.64279 -78.61624,68.15831 -175.59429,68.15831c-96.97805,0 -175.59429,-30.51552 -175.59429,-68.15831c0,-37.64279 78.61624,-68.15831 175.59429,-68.15831c96.97805,0 175.59429,30.51552 175.59429,68.15831z"
                stroke-linecap="butt" />
            <path
                d="M240,355.59429c-37.6428,0 -68.1583,-78.61624 -68.1583,-175.59429c0,-96.97805 30.5155,-175.59429 68.1583,-175.59429c37.6428,0 68.1583,78.61624 68.1583,175.59429c0,96.97805 -30.5155,175.59429 -68.1583,175.59429z"
                stroke-linecap="butt" />
        </g>
    </g>
</svg>